<svg width="22" height="16" viewBox="0 0 22 16" fill="none" xmlns="http://www.w3.org/2000/svg">
<path d="M14.2119 0C14.0073 0.366452 13.8249 0.744901 13.6659 1.13329C12.1027 0.886079 10.5104 0.886079 8.94726 1.13329C8.78817 0.744901 8.60583 0.366452 8.40122 0C6.92875 0.251591 5.49732 0.702163 4.14623 1.33934C1.7302 4.82605 0.634509 9.05906 1.05544 13.2801C2.62992 14.4637 4.39705 15.3665 6.27887 15.9485C6.70738 15.3825 7.0898 14.783 7.42247 14.1558C6.80851 13.9295 6.21839 13.643 5.66072 13.3007C5.81367 13.1989 5.95836 13.0853 6.09343 12.9607C7.71966 13.744 9.50151 14.1508 11.3066 14.1508C13.1116 14.1508 14.8935 13.744 16.5197 12.9607C16.6639 13.0844 16.8082 13.1977 16.9524 13.3007C16.3917 13.6403 15.8022 13.9299 15.1907 14.1661C15.5095 14.8075 15.8817 15.421 16.3033 16C18.1828 15.42 19.9469 14.517 21.5165 13.3316C21.9475 9.1098 20.8509 4.87334 18.4257 1.39086C17.0898 0.740489 15.6725 0.27268 14.2119 0ZM7.88609 10.8693C7.37053 10.8323 6.88935 10.597 6.54357 10.2128C6.19779 9.82857 6.0143 9.32535 6.03161 8.80876C6.01169 8.29148 6.19428 7.78682 6.54057 7.40204C6.88687 7.01727 7.36957 6.78271 7.88609 6.74823C8.4026 6.78271 8.8853 7.01727 9.2316 7.40204C9.5779 7.78682 9.76049 8.29148 9.74056 8.80876C9.76049 9.32604 9.5779 9.83069 9.2316 10.2155C8.8853 10.6002 8.4026 10.8348 7.88609 10.8693ZM14.727 10.8693C14.2115 10.8323 13.7303 10.597 13.3845 10.2128C13.0387 9.82857 12.8553 9.32535 12.8726 8.80876C12.8526 8.29148 13.0352 7.78682 13.3815 7.40204C13.7278 7.01727 14.2105 6.78271 14.727 6.74823C15.2445 6.78014 15.7288 7.01394 16.0756 7.3993C16.4224 7.78467 16.6041 8.29079 16.5815 8.80876C16.6041 9.32672 16.4224 9.83285 16.0756 10.2182C15.7288 10.6036 15.2445 10.8374 14.727 10.8693Z" fill="#4589FF"/>
</svg>
