<svg width="1440" height="399" viewBox="0 0 1440 399" fill="none" xmlns="http://www.w3.org/2000/svg">
<path d="M-66.9883 -77.0002C-61.1814 -69.2294 305.597 391.529 392.241 391.529C478.885 391.529 518.397 332.481 601.317 316.755C684.237 301.03 744.72 287.891 897.9 327.271C980.975 348.628 983.015 384.104 1032.03 392.139C1081.04 400.175 1204.35 372.34 1366.17 372.34C1527.98 372.34 1887.19 440.231 1928.99 519.272" stroke="#001AFF"/>
<path d="M-38.2969 249.477C-30.7767 254.027 316.526 99.6681 428.734 99.6681C540.942 99.6681 592.111 65.0979 699.496 55.8911C806.882 46.6843 885.208 38.9922 1083.58 62.0477C1191.17 74.5514 1193.81 95.3209 1257.29 100.026C1320.76 104.73 1408.29 58.2361 1517.46 46.6843C1584.5 39.5901 1619.65 47.7912 1709.78 46.6843C1799.91 45.5774 1550.42 535.767 1183 610.164" stroke="#00F0FF"/>
<path d="M-66.2861 -69.0355C-63.2701 -65.1339 36.0751 45.3766 139.544 158.704C243.014 272.032 354.853 383.569 399.737 383.344C486.887 383.12 527.346 325.325 613.082 310.545C696.604 295.508 755.675 283.196 906.668 321.73C989.265 342.681 993.39 376.157 1043.87 383.716C1093.32 391.382 1214.49 364.426 1374.55 364.399C1534.62 364.372 1866.56 444.029 1910.8 521.491" stroke="#001FFF"/>
<path d="M-65.585 -61.0736C-62.4563 -57.1558 43.0878 46.7329 146.776 157.227C250.463 267.722 360.786 375.606 407.233 375.157C494.889 374.708 536.294 318.165 624.846 304.331C708.97 289.983 766.63 278.498 915.435 316.187C997.554 336.731 1003.76 368.208 1055.71 375.289C1105.61 382.587 1224.62 356.51 1382.93 356.456C1541.25 356.402 1845.93 447.825 1892.6 523.707" stroke="#0024FF"/>
<path d="M-64.8926 -53.1098C-61.6513 -49.1758 50.0917 48.0912 153.998 155.752C257.904 263.414 366.71 367.645 414.719 366.972C502.881 366.298 545.233 311.008 636.601 298.12C721.326 284.46 777.576 273.802 924.193 310.645C1005.83 330.784 1014.13 360.261 1067.54 366.864C1117.88 373.793 1234.74 348.595 1391.31 348.514C1547.88 348.433 1825.29 451.622 1874.4 525.925" stroke="#0029FF"/>
<path d="M-64.1904 -45.147C-60.8366 -41.1968 57.1054 49.4485 161.23 154.277C265.355 259.105 372.644 359.683 422.216 358.785C510.883 357.887 554.182 303.85 648.366 291.908C733.693 278.936 788.532 269.105 932.961 305.102C1014.12 324.835 1024.5 352.313 1079.39 358.438C1130.16 364.998 1244.87 340.679 1399.69 340.571C1554.51 340.463 1804.65 455.419 1856.21 528.142" stroke="#002EFF"/>
<path d="M-63.4883 -37.1862C-60.0218 -33.2198 64.1191 50.8038 168.462 152.799C272.806 254.794 378.577 351.72 429.712 350.597C518.886 349.474 563.131 296.689 660.131 285.693C746.06 273.41 799.488 264.407 941.729 299.558C1022.41 318.884 1034.88 344.363 1091.23 350.01C1142.44 356.201 1255 332.761 1408.07 332.626C1561.15 332.491 1784.02 459.213 1838.02 530.356" stroke="#0034FF"/>
<path d="M-62.7871 -29.2205C-59.208 -25.2379 71.1318 52.1639 175.694 151.326C280.255 250.487 384.51 343.761 437.208 342.413C526.887 341.066 572.079 289.534 671.895 279.484C758.425 267.889 810.443 259.713 950.496 294.018C1030.7 312.938 1045.25 336.418 1103.07 341.587C1154.72 347.409 1265.13 324.848 1416.46 324.686C1567.78 324.524 1763.39 463.012 1819.82 532.576" stroke="#0039FF"/>
<path d="M-62.085 -21.2587C-58.3933 -17.2599 78.1455 53.5202 182.926 149.849C287.706 246.177 390.444 335.798 444.704 334.226C534.889 332.654 581.028 282.375 683.66 273.27C770.792 262.364 821.399 255.015 959.264 288.474C1038.99 306.988 1055.63 328.469 1114.91 333.161C1167 338.613 1275.26 316.931 1424.84 316.742C1574.41 316.553 1742.75 466.808 1801.63 534.792" stroke="#003EFF"/>
<path d="M-61.3936 -13.2969C-57.5893 -9.28192 85.1485 54.8764 190.147 148.372C295.146 241.867 396.367 327.835 452.19 326.039C542.881 324.242 589.966 275.215 695.414 267.057C783.148 256.839 832.344 250.317 968.021 282.931C1047.27 301.039 1065.99 320.52 1126.74 324.734C1179.27 329.818 1285.38 309.014 1433.21 308.798C1581.04 308.582 1722.11 470.603 1783.43 537.008" stroke="#0043FF"/>
<path d="M-60.6914 -5.33214C-56.7745 -1.30096 92.1622 56.2357 197.379 146.898C302.596 237.56 402.301 319.875 459.686 317.854C550.883 315.833 598.915 268.059 707.179 260.846C795.514 251.317 843.299 245.622 976.789 277.39C1055.56 295.092 1076.37 312.574 1138.59 316.31C1191.56 321.025 1295.51 301.1 1441.59 300.857C1587.67 300.614 1701.48 474.402 1765.23 539.227" stroke="#0049FF"/>
<path d="M-59.9893 2.62877C-55.9598 6.67615 99.1759 57.591 204.611 145.42C310.047 233.249 408.235 311.912 467.182 309.666C558.885 307.421 607.864 260.899 718.944 254.632C807.881 245.791 854.255 240.923 985.556 271.846C1063.85 289.141 1086.74 304.624 1150.43 307.882C1203.84 312.228 1305.65 293.182 1449.98 292.912C1594.31 292.642 1680.84 478.196 1747.04 541.441" stroke="#004EFF"/>
<path d="M-59.2871 10.5916C-55.145 14.6552 106.19 58.9483 211.844 143.944C317.498 228.94 414.169 303.95 474.679 301.48C566.888 299.01 616.813 253.74 730.709 248.419C820.247 240.267 865.211 236.226 994.324 266.303C1072.14 283.192 1097.12 296.676 1162.27 299.457C1216.12 303.433 1315.78 285.266 1458.36 284.969C1600.94 284.672 1660.21 481.993 1728.85 543.658" stroke="#0053FF"/>
<path d="M-58.585 18.5563C-54.3303 22.6361 113.203 60.3075 219.076 142.47C324.948 224.633 420.103 295.99 482.175 293.295C574.89 290.601 625.762 246.584 742.474 242.209C832.614 234.745 876.167 231.531 1003.09 260.762C1080.43 277.245 1107.49 288.73 1174.11 291.033C1228.4 294.64 1325.91 277.352 1466.74 277.028C1607.58 276.705 1639.58 485.791 1710.66 545.877" stroke="#0058FF"/>
<path d="M-57.8955 26.5171C-53.5282 30.6131 120.204 61.6628 226.295 140.992C332.386 220.322 426.024 288.026 489.659 285.107C582.879 282.188 634.698 239.424 754.226 235.994C844.967 229.22 887.11 226.832 1011.85 255.218C1088.71 271.295 1117.85 280.78 1185.94 282.605C1240.67 285.843 1336.03 269.435 1475.11 269.084C1614.2 268.733 1618.93 489.585 1692.45 548.092" stroke="#005DFF"/>
<path d="M-57.1934 34.4789C-52.7135 38.5911 127.218 63.0191 233.527 139.515C339.837 216.011 431.958 280.063 497.155 276.92C590.882 273.776 643.647 232.264 765.991 229.781C857.334 223.695 898.066 222.134 1020.62 249.674C1097 265.345 1128.23 272.831 1197.78 274.178C1252.95 277.048 1346.16 261.518 1483.5 261.14C1620.83 260.762 1598.3 493.381 1674.26 550.308" stroke="#0063FF"/>
<path d="M-56.4932 42.4436C-51.9007 46.572 134.23 64.3782 240.758 138.041C347.285 211.704 437.89 272.104 504.65 268.735C598.882 265.367 652.595 225.108 777.755 223.571C869.699 218.173 909.02 217.439 1029.38 244.133C1105.29 259.398 1138.6 264.885 1209.62 265.754C1265.23 268.255 1356.29 253.604 1491.88 253.199C1627.47 252.794 1577.67 497.179 1656.06 552.526" stroke="#0068FF"/>
<path d="M-55.791 50.4065C-51.0859 54.5511 141.243 65.7356 247.99 136.565C354.736 207.395 443.824 264.142 512.146 260.549C606.885 256.956 661.544 217.95 789.52 217.358C882.065 212.649 919.975 212.743 1038.15 238.591C1113.58 253.449 1148.98 256.937 1221.47 257.328C1277.52 259.46 1366.42 245.688 1500.26 245.256C1634.1 244.824 1557.03 500.976 1637.87 554.743" stroke="#006DFF"/>
<path d="M-55.0869 58.3674C-50.2692 62.5281 148.259 67.0909 255.224 135.087C362.189 203.084 449.76 256.178 519.644 252.361C614.889 248.543 670.494 210.789 801.286 211.144C894.434 207.123 930.933 208.044 1046.92 233.046C1121.87 247.499 1159.35 248.987 1233.31 248.901C1289.8 250.663 1376.55 237.77 1508.64 237.311C1640.74 236.852 1536.4 504.77 1619.68 556.958" stroke="#0072FF"/>
<path d="M-54.3955 66.332C-49.4652 70.5089 155.262 68.45 262.445 133.613C369.628 198.777 455.683 248.218 527.13 244.176C622.88 240.134 679.433 203.633 813.04 204.933C906.789 201.601 941.878 203.349 1055.68 227.505C1130.15 241.552 1169.72 241.04 1245.14 240.477C1302.07 241.87 1386.67 229.856 1517.02 229.37C1647.36 228.884 1515.76 508.568 1601.48 559.177" stroke="#0078FF"/>
<path d="M-53.6934 74.2939C-48.6505 78.4871 162.276 69.8064 269.677 132.137C377.079 194.467 461.616 240.255 534.626 235.989C630.882 231.722 688.382 196.474 824.805 198.72C919.156 196.076 952.834 198.651 1064.44 221.962C1138.44 235.602 1180.09 233.091 1256.98 232.05C1314.35 233.074 1396.81 221.939 1525.4 221.426C1654 220.913 1495.13 512.364 1583.28 561.393" stroke="#007DFF"/>
<path d="M-52.9912 82.2596C-47.8357 86.469 169.289 71.1666 276.909 130.664C384.53 190.161 467.55 232.297 542.123 227.805C638.885 223.314 697.33 189.318 836.57 192.51C931.523 190.555 963.79 193.957 1073.21 216.422C1146.73 229.656 1190.47 225.146 1268.82 223.627C1326.63 224.282 1406.94 214.026 1533.78 213.486C1660.63 212.946 1474.49 516.163 1565.09 563.612" stroke="#0082FF"/>
<path d="M-52.291 90.2214C-47.0229 94.4469 176.301 72.5228 284.14 129.187C391.978 185.85 473.482 224.334 549.617 219.618C646.885 214.902 706.278 182.159 848.334 186.297C943.887 185.03 974.744 189.259 1081.98 210.878C1155.01 223.706 1200.84 217.197 1280.66 215.2C1338.91 215.487 1417.07 206.109 1542.16 205.542C1667.26 204.975 1453.86 519.959 1546.9 565.828" stroke="#0087FF"/>
<path d="M-51.5908 98.1861C-46.2101 102.428 183.313 73.882 291.37 127.713C399.427 181.543 479.414 216.374 557.112 211.434C654.885 206.493 715.225 175.003 860.096 180.086C956.252 179.508 985.697 184.564 1090.74 205.338C1163.3 217.759 1211.21 209.251 1292.5 206.777C1351.19 206.694 1427.2 198.195 1550.54 197.601C1673.89 197.007 1433.22 523.757 1528.7 568.047" stroke="#008CFF"/>
<path d="M-50.8965 106.144C-45.4032 110.402 190.319 75.2344 298.594 126.232C406.87 177.229 485.34 208.407 564.6 203.242C662.88 198.078 724.166 167.839 871.854 173.869C968.611 173.979 996.645 179.862 1099.5 199.79C1171.58 211.806 1221.58 201.298 1304.34 198.346C1363.47 197.894 1437.32 190.275 1558.92 189.654C1680.52 189.033 1412.58 527.549 1510.5 570.259" stroke="#0092FF"/>
<path d="M-50.1953 114.109C-44.5894 118.383 197.331 76.5936 305.825 124.758C414.319 172.922 491.273 200.447 572.096 195.058C670.881 189.669 733.114 160.683 883.618 167.658C980.976 168.457 1007.6 175.167 1108.27 194.25C1179.87 205.859 1231.95 193.352 1316.18 189.922C1375.75 189.101 1447.45 182.361 1567.3 181.713C1687.16 181.065 1391.95 531.347 1492.31 572.478" stroke="#0097FF"/>
<path d="M-49.4941 122.075C-43.7756 126.365 204.344 77.9538 313.057 123.285C421.769 168.616 497.206 192.489 579.591 186.875C678.882 181.261 742.062 153.528 895.382 161.449C993.342 162.936 1018.55 170.473 1117.04 188.71C1188.16 199.913 1242.33 185.407 1328.02 181.499C1388.03 180.309 1457.58 174.448 1575.68 173.773C1693.79 173.098 1371.32 535.146 1474.12 574.697" stroke="#009CFF"/>
<path d="M-48.793 130.032C-42.9618 134.339 211.357 79.3062 320.288 121.804C429.219 164.302 503.139 184.522 587.087 178.683C686.884 172.845 751.01 146.364 907.145 155.232C1005.71 157.407 1029.51 165.772 1125.8 183.162C1196.45 193.959 1252.7 177.454 1339.86 173.068C1400.31 171.51 1467.71 166.527 1584.07 165.825C1700.42 165.123 1350.68 538.938 1455.92 576.909" stroke="#00A1FF"/>
<path d="M-48.0928 137.998C-42.149 142.321 218.369 80.6664 327.518 120.331C436.667 159.996 509.071 176.563 594.581 170.5C694.884 164.437 759.957 139.209 918.909 149.022C1018.07 151.886 1040.46 161.078 1134.57 177.623C1204.74 188.013 1263.07 169.509 1351.7 164.646C1412.59 162.718 1477.84 158.614 1592.45 157.885C1707.06 157.156 1330.05 542.737 1437.73 579.129" stroke="#00A7FF"/>
<path d="M-47.4004 145.963C-41.3441 150.302 225.372 82.0256 334.74 118.857C444.108 155.689 514.995 168.603 602.068 162.316C702.877 156.028 768.896 132.052 930.664 142.811C1030.43 146.364 1051.41 156.383 1143.33 172.082C1213.02 182.067 1273.44 161.563 1363.53 156.222C1424.86 153.925 1487.96 150.7 1600.82 149.944C1713.68 149.188 1309.41 546.535 1419.52 581.348" stroke="#00ACFF"/>
<path d="M-46.6963 153.921C-40.5274 158.276 232.388 83.378 341.975 117.376C451.561 151.375 520.931 160.637 609.566 154.124C710.881 147.612 777.847 124.889 942.431 136.594C1042.8 140.836 1062.37 151.681 1152.1 166.534C1221.31 176.113 1283.81 153.61 1375.38 147.791C1437.15 145.125 1498.1 142.779 1609.21 141.996C1720.32 141.213 1288.78 550.327 1401.33 583.56" stroke="#00B1FF"/>
<path d="M-45.9941 161.887C-39.7126 166.258 239.402 84.7382 349.207 115.903C459.011 147.068 526.865 152.678 617.062 145.941C718.883 139.204 786.796 117.734 954.196 130.385C1055.16 135.315 1073.32 146.987 1160.87 160.995C1229.6 170.167 1294.19 145.665 1387.22 139.368C1449.43 136.333 1508.23 134.866 1617.59 134.056C1726.95 133.246 1268.14 554.126 1383.14 585.779" stroke="#00B6FF"/>
<path d="M-45.2949 169.851C-38.9008 174.239 246.413 86.0973 356.436 114.429C466.459 142.761 532.796 144.718 624.556 137.757C726.883 130.795 795.742 110.577 965.958 124.174C1067.53 129.793 1084.28 142.292 1169.63 155.454C1237.89 164.22 1304.56 137.719 1399.06 130.944C1461.71 127.54 1518.35 126.952 1625.97 126.115C1733.58 125.278 1247.51 557.925 1364.95 587.998" stroke="#00BBFF"/>
<path d="M-44.5928 177.813C-38.086 182.217 253.426 87.4536 363.668 112.952C473.91 138.451 538.73 136.755 632.052 129.569C734.885 122.383 804.691 103.418 977.723 117.961C1079.89 124.268 1095.23 137.594 1178.4 149.91C1246.18 158.27 1314.94 129.77 1410.9 122.517C1473.99 118.744 1528.49 119.035 1634.35 118.171C1740.22 117.307 1573.33 544.627 1346.75 590.214" stroke="#00C1FF"/>
<path d="M-43.8994 185.775C-37.2801 190.195 260.431 88.81 370.891 111.475C481.351 134.141 544.655 128.792 639.54 121.382C742.878 113.972 813.631 96.2589 989.479 111.747C1092.25 118.743 1106.18 132.896 1187.16 144.367C1254.46 152.321 1325.3 121.821 1422.74 114.091C1486.26 109.949 1538.61 111.118 1642.73 110.228C1746.84 109.337 1767.33 572.87 1328.55 592.43" stroke="#00C6FF"/>
<path d="M-43.1982 193.739C-36.4663 198.175 267.444 90.1683 378.123 110.001C488.801 129.833 550.588 120.831 647.035 113.197C750.879 105.562 822.579 89.1016 1001.24 105.536C1104.62 113.22 1117.13 128.2 1195.92 138.825C1262.75 146.373 1335.68 113.874 1434.58 105.666C1498.54 101.155 1548.74 103.204 1651.11 102.286C1753.48 101.368 1651.11 532.671 1310.36 594.647" stroke="#00CBFF"/>
<path d="M-42.4961 201.7C-35.6515 206.153 274.458 91.5243 385.355 108.523C496.252 125.523 556.521 112.868 654.532 105.009C758.882 97.1495 831.528 81.942 1013.01 99.3221C1116.98 107.695 1128.09 123.502 1204.69 133.281C1271.04 140.423 1346.05 105.924 1446.42 97.2389C1510.82 92.3588 1558.87 95.2864 1659.49 94.3415C1760.11 93.3966 1531.83 615.234 1292.17 596.863" stroke="#00D0FF"/>
<path d="M-41.7949 209.663C-34.8378 214.132 281.47 92.8817 392.586 107.048C503.701 121.214 562.454 104.907 662.027 96.8228C766.883 88.7388 840.476 74.7838 1024.77 93.1099C1129.35 102.171 1139.04 118.805 1213.46 127.739C1279.32 134.474 1356.42 97.9763 1458.26 88.8133C1523.11 83.5642 1569 87.3707 1667.87 86.3988C1766.75 85.4269 1632.43 577.192 1273.97 599.08" stroke="#00D6FF"/>
<path d="M-41.0938 217.627C-34.024 222.112 288.483 94.2399 399.817 105.573C511.151 116.905 568.387 96.946 669.523 88.6374C774.884 80.3288 849.424 67.6264 1036.54 86.8983C1141.71 96.648 1150 114.109 1222.23 122.197C1287.61 128.526 1366.8 90.0292 1470.1 80.3884C1535.39 74.7703 1579.13 79.4557 1676.26 78.4568C1773.38 77.4579 1676.26 601.298 1255.78 601.298" stroke="#00DBFF"/>
<path d="M-40.4004 225.59C-33.218 230.091 295.488 95.5972 407.04 104.097C518.593 112.596 574.312 88.9843 677.01 80.4512C782.878 71.9181 858.364 60.4682 1048.29 80.686C1154.07 91.1241 1160.95 109.413 1230.98 116.655C1295.89 122.578 1377.16 82.0812 1481.93 71.9627C1547.66 65.9755 1589.25 71.5399 1684.63 70.514C1780 69.4881 1621.44 595.79 1237.58 603.515" stroke="#00E0FF"/>
<path d="M-39.7031 233.551C-32.4082 238.068 302.497 96.9525 414.268 102.619C526.039 108.285 580.241 81.0205 684.502 72.2628C790.875 63.5051 867.308 53.3078 1060.05 74.4715C1166.43 85.5982 1171.9 104.714 1239.75 111.11C1304.18 116.627 1387.53 74.1312 1493.77 63.5349C1559.94 57.1787 1599.38 63.622 1693.01 62.5691C1786.63 61.5162 1588.47 571.274 1219.38 605.729" stroke="#00E5FF"/>
<path d="M-38.9971 241.515C-31.5895 246.049 309.514 98.3117 421.504 101.145C533.493 103.978 586.179 73.0606 692.002 64.0784C798.881 55.0961 876.261 46.1514 1071.82 68.261C1178.8 80.0762 1182.86 100.019 1248.52 105.569C1312.47 110.68 1397.91 66.185 1505.62 55.111C1572.22 48.3858 1609.52 55.708 1701.39 54.6281C1793.27 53.5482 1570.71 534.922 1201.19 607.948" stroke="#00EAFF"/>
</svg>
