<svg width="80" height="80" viewBox="0 0 80 80" fill="none" xmlns="http://www.w3.org/2000/svg">
<g clip-path="url(#clip0_1_661)">
<path fill-rule="evenodd" clip-rule="evenodd" d="M40 80C62.0914 80 80 62.0914 80 40C80 17.9086 62.0914 0 40 0C17.9086 0 0 17.9086 0 40C0 62.0914 17.9086 80 40 80Z" fill="#007EBB"/>
<path fill-rule="evenodd" clip-rule="evenodd" d="M65.5556 63.3332H55.5104V46.2241C55.5104 41.5333 53.728 38.9118 50.0152 38.9118C45.9762 38.9118 43.8659 41.6398 43.8659 46.2241V63.3332H34.1852V30.7406H43.8659V35.1309C43.8659 35.1309 46.7766 29.7449 53.693 29.7449C60.6062 29.7449 65.5556 33.9665 65.5556 42.6976V63.3332ZM22.6362 26.4729C19.3387 26.4729 16.6667 23.7799 16.6667 20.4586C16.6667 17.1373 19.3387 14.4443 22.6362 14.4443C25.9336 14.4443 28.604 17.1373 28.604 20.4586C28.604 23.7799 25.9336 26.4729 22.6362 26.4729ZM17.6375 63.3332H27.7319V30.7406H17.6375V63.3332Z" fill="white"/>
</g>
<defs>
<clipPath id="clip0_1_661">
<rect width="80" height="80" fill="white"/>
</clipPath>
</defs>
</svg>
