<svg width="169" height="90" viewBox="0 0 169 90" fill="none" xmlns="http://www.w3.org/2000/svg">
<path d="M5.2233 87.2692C4.20918 87.2692 3.22867 87.1317 2.28176 86.8568C1.33484 86.5819 0.574257 86.2245 0 85.7847L1.008 83.5487C1.55783 83.9519 2.2115 84.2757 2.96903 84.52C3.72656 84.7644 4.48409 84.8866 5.24163 84.8866C6.08468 84.8866 6.70781 84.7614 7.11102 84.5109C7.51422 84.2604 7.71582 83.9275 7.71582 83.512C7.71582 83.2066 7.59669 82.953 7.35844 82.7514C7.12018 82.5498 6.81472 82.3879 6.44207 82.2658C6.06941 82.1436 5.56541 82.0092 4.93006 81.8625C3.9526 81.6304 3.15231 81.3982 2.52918 81.1661C1.90605 80.9339 1.3715 80.5613 0.925532 80.0481C0.479566 79.5349 0.256583 78.8507 0.256583 77.9954C0.256583 77.2501 0.458184 76.575 0.861386 75.9702C1.26459 75.3654 1.87245 74.8858 2.68496 74.5315C3.49747 74.1772 4.4902 74 5.66315 74C6.48178 74 7.28207 74.0977 8.06404 74.2932C8.84601 74.4887 9.53023 74.7698 10.1167 75.1363L9.20034 77.3906C8.01517 76.7186 6.83 76.3826 5.64483 76.3826C4.81399 76.3826 4.20002 76.517 3.80293 76.7858C3.40583 77.0546 3.20729 77.4089 3.20729 77.8488C3.20729 78.2887 3.43638 78.6155 3.89456 78.8293C4.35275 79.0431 5.05224 79.2539 5.99305 79.4616C6.97051 79.6938 7.7708 79.9259 8.39393 80.1581C9.01706 80.3902 9.55161 80.7568 9.99758 81.2577C10.4435 81.7587 10.6665 82.4368 10.6665 83.2921C10.6665 84.0252 10.4619 84.6942 10.0526 85.299C9.64325 85.9038 9.02928 86.3834 8.21066 86.7377C7.39204 87.092 6.39625 87.2692 5.2233 87.2692ZM25.2551 86.8477L26.5747 88.4238C26.1593 88.937 25.6553 89.328 25.0627 89.5968C24.4701 89.8656 23.8195 90 23.1108 90C22.1578 90 21.2964 89.7953 20.5266 89.386C19.7569 88.9767 18.8772 88.2528 17.8875 87.2142C16.7268 87.0676 15.6913 86.6949 14.781 86.0962C13.8708 85.4975 13.1621 84.7247 12.655 83.7778C12.148 82.8309 11.8945 81.7831 11.8945 80.6346C11.8945 79.3761 12.1969 78.2428 12.8017 77.2348C13.4065 76.2268 14.2434 75.4357 15.3125 74.8614C16.3816 74.2871 17.5821 74 18.9138 74C20.2456 74 21.443 74.2871 22.506 74.8614C23.569 75.4357 24.4059 76.2268 25.0168 77.2348C25.6278 78.2428 25.9332 79.3761 25.9332 80.6346C25.9332 82.1252 25.5147 83.4326 24.6778 84.5567C23.8408 85.6808 22.732 86.4628 21.3514 86.9026C21.6568 87.2203 21.9531 87.4494 22.2403 87.5899C22.5274 87.7304 22.8359 87.8007 23.1658 87.8007C23.96 87.8007 24.6564 87.483 25.2551 86.8477ZM14.9001 80.6346C14.9001 81.4288 15.0743 82.1375 15.4225 82.7606C15.7707 83.3837 16.2503 83.8694 16.8612 84.2176C17.4721 84.5659 18.1563 84.74 18.9138 84.74C19.6714 84.74 20.3556 84.5659 20.9665 84.2176C21.5774 83.8694 22.057 83.3837 22.4052 82.7606C22.7534 82.1375 22.9275 81.4288 22.9275 80.6346C22.9275 79.8404 22.7534 79.1317 22.4052 78.5086C22.057 77.8855 21.5774 77.3998 20.9665 77.0515C20.3556 76.7033 19.6714 76.5292 18.9138 76.5292C18.1563 76.5292 17.4721 76.7033 16.8612 77.0515C16.2503 77.3998 15.7707 77.8855 15.4225 78.5086C15.0743 79.1317 14.9001 79.8404 14.9001 80.6346ZM33.869 87.2692C32.0362 87.2692 30.6097 86.7621 29.5895 85.748C28.5693 84.7339 28.0592 83.286 28.0592 81.4044V74.2199H31.0282V81.2944C31.0282 83.5914 31.9812 84.74 33.8873 84.74C34.8159 84.74 35.5245 84.462 36.0133 83.9061C36.502 83.3501 36.7464 82.4796 36.7464 81.2944V74.2199H39.6787V81.4044C39.6787 83.286 39.1686 84.7339 38.1484 85.748C37.1282 86.7621 35.7017 87.2692 33.869 87.2692ZM42.6111 87.0493V74.2199H45.5801V87.0493H42.6111ZM59.9855 87.0493H56.7965L54.3223 83.4754H54.1757H51.5915V87.0493H48.6225V74.2199H54.1757C55.312 74.2199 56.2986 74.4093 57.1356 74.7881C57.9725 75.1669 58.617 75.7045 59.0691 76.4009C59.5212 77.0974 59.7472 77.9221 59.7472 78.8751C59.7472 79.8282 59.5181 80.6499 59.0599 81.3402C58.6017 82.0305 57.9511 82.559 57.1081 82.9255L59.9855 87.0493ZM56.7415 78.8751C56.7415 78.1543 56.5094 77.6014 56.0451 77.2165C55.5808 76.8316 54.9027 76.6392 54.0107 76.6392H51.5915V81.1111H54.0107C54.9027 81.1111 55.5808 80.9156 56.0451 80.5246C56.5094 80.1336 56.7415 79.5838 56.7415 78.8751ZM73.4561 87.0493H70.2671L67.7929 83.4754H67.6463H65.0621V87.0493H62.0931V74.2199H67.6463C68.7826 74.2199 69.7692 74.4093 70.6062 74.7881C71.4431 75.1669 72.0876 75.7045 72.5397 76.4009C72.9918 77.0974 73.2178 77.9221 73.2178 78.8751C73.2178 79.8282 72.9887 80.6499 72.5305 81.3402C72.0723 82.0305 71.4217 82.559 70.5787 82.9255L73.4561 87.0493ZM70.2121 78.8751C70.2121 78.1543 69.98 77.6014 69.5157 77.2165C69.0514 76.8316 68.3733 76.6392 67.4813 76.6392H65.0621V81.1111H67.4813C68.3733 81.1111 69.0514 80.9156 69.5157 80.5246C69.98 80.1336 70.2121 79.5838 70.2121 78.8751ZM78.5144 84.6667H85.4971V87.0493H75.5637V74.2199H85.2589V76.6025H78.5144V79.3883H84.4708V81.6976H78.5144V84.6667ZM87.8614 87.0493V74.2199H90.8304V84.63H97.2633V87.0493H87.8614Z" fill="#0E3759"/>
<path d="M116.366 71.301H120.118V87.7184H116.999L108.814 77.7507V87.7184H105.061V71.301H108.204L116.366 81.2687V71.301ZM131.962 87.9999C130.258 87.9999 128.722 87.6325 127.354 86.8976C125.985 86.1627 124.914 85.1503 124.14 83.8603C123.367 82.5704 122.98 81.1202 122.98 79.5097C122.98 77.8992 123.367 76.449 124.14 75.1591C124.914 73.8691 125.985 72.8567 127.354 72.1218C128.722 71.387 130.258 71.0195 131.962 71.0195C133.667 71.0195 135.199 71.387 136.559 72.1218C137.919 72.8567 138.99 73.8691 139.772 75.1591C140.554 76.449 140.945 77.8992 140.945 79.5097C140.945 81.1202 140.554 82.5704 139.772 83.8603C138.99 85.1503 137.919 86.1627 136.559 86.8976C135.199 87.6325 133.667 87.9999 131.962 87.9999ZM131.962 84.7633C132.932 84.7633 133.807 84.5405 134.589 84.0949C135.371 83.6493 135.985 83.0277 136.43 82.2303C136.876 81.4329 137.099 80.526 137.099 79.5097C137.099 78.4934 136.876 77.5865 136.43 76.7891C135.985 75.9917 135.371 75.3702 134.589 74.9245C133.807 74.4789 132.932 74.2561 131.962 74.2561C130.993 74.2561 130.117 74.4789 129.335 74.9245C128.554 75.3702 127.94 75.9917 127.494 76.7891C127.049 77.5865 126.826 78.4934 126.826 79.5097C126.826 80.526 127.049 81.4329 127.494 82.2303C127.94 83.0277 128.554 83.6493 129.335 84.0949C130.117 84.5405 130.993 84.7633 131.962 84.7633ZM164.445 71.301H168.081L162.71 87.7184H158.629L155.017 76.6015L151.288 87.7184H147.23L141.836 71.301H145.776L149.482 82.8401L153.352 71.301H156.87L160.622 82.9339L164.445 71.301Z" fill="#ED4545"/>
<path d="M115.972 31.7773C115.789 30.9505 114.87 30.4912 114.135 30.1237C111.287 28.6998 113.997 28.2864 113.676 26.3572C113.492 25.4386 112.527 24.9792 111.884 25.5764C111.333 26.0816 111.838 27.2299 111.425 27.8271C110.369 29.251 108.485 27.9649 107.107 28.4701C104.949 29.251 106.832 30.4912 105.316 31.5936C104.719 32.0529 103.938 32.0529 103.249 31.8232C102.56 31.5936 101.963 31.1342 101.412 30.7208C100.723 30.1696 99.5744 29.0673 100.585 28.1945C100.906 27.9189 101.32 27.8271 101.733 27.6893C105.729 26.4032 108.807 23.2797 106.097 19.1917C104.535 16.8491 101.963 15.7927 99.3907 15.0578C98.5639 14.8281 96.9103 14.5984 96.3132 14.0013C95.5783 13.2664 96.0835 11.4291 94.7515 11.1535C94.2462 11.0616 93.695 11.475 93.5113 11.9343C93.2816 12.4396 93.3276 12.9908 93.3735 13.496C93.5572 16.4817 92.317 20.4319 89.5151 22.0855C87.9534 22.9123 86.3917 23.7391 84.83 24.6118C79.1344 27.6893 74.9085 33.5227 73.3009 39.6318C73.1631 40.2289 72.9794 40.872 72.52 41.2854C71.3717 42.25 70.4531 40.872 70.5909 39.8155C71.0502 36.6002 72.8416 34.1658 74.6789 31.5936C79.364 25.0711 87.586 21.2128 85.4271 11.7047C84.3247 6.698 80.3745 2.56406 75.5516 0.910478C64.4359 -2.94787 51.5288 5.96308 53.1365 18.0893C53.2743 19.0998 54.0551 20.386 54.9738 19.9726C55.4331 19.7429 55.6168 19.1917 55.7546 18.6865C56.3977 16.6654 57.8675 14.8281 59.8886 14.231C61.9096 13.6338 64.39 14.6444 65.033 16.6654C65.6301 18.5946 64.4359 20.5697 63.4713 22.3611C57.0867 34.3495 61.1287 53.825 75.1382 58.5101C79.2722 59.8881 83.7736 59.5666 88.0453 59.5666C91.674 59.5666 95.3945 59.4747 99.0232 59.4747C99.9419 59.4747 101.55 58.7857 100.769 57.5456C100.126 56.535 98.4261 57.4078 97.5534 56.6728C97.094 56.3054 97.0481 55.6164 97.1859 55.1111C97.5534 53.9169 98.8854 53.4116 99.5744 52.4011C100.585 50.8394 101.32 49.048 101.458 47.2107C101.687 44.3169 100.447 41.2394 98.0127 39.6318C97.5993 39.3562 97.14 39.1265 96.8184 38.7131C96.3132 38.116 96.405 37.0595 97.2778 36.8299C97.7371 36.6921 98.472 37.1973 98.9773 37.2433C100.677 37.427 102.882 36.738 104.122 35.5897C104.443 35.3141 104.811 34.9466 105.224 35.0385C106.097 35.2222 105.775 37.0136 106.097 37.6567C106.464 38.5294 107.061 39.2643 107.98 39.5858C109.174 39.9992 110.506 39.6777 111.517 38.8969C113.17 37.6107 113.584 35.36 114.87 33.7983C115.375 33.0634 116.248 32.9715 115.972 31.7773ZM98.7935 20.386C98.7935 19.5132 99.5285 18.7783 100.401 18.7783C101.274 18.7783 102.009 19.5132 102.009 20.386C102.009 21.2587 101.274 21.9936 100.401 21.9936C99.5285 21.9936 98.7935 21.3046 98.7935 20.386Z" fill="#0E3759"/>
</svg>
