<svg width="21" height="12" viewBox="0 0 21 12" fill="none" xmlns="http://www.w3.org/2000/svg">
<path d="M11.5684 6.00003C11.5684 9.10522 9.04427 11.6231 5.92908 11.6231C5.18967 11.6241 4.4573 11.4794 3.77379 11.1974C3.09028 10.9153 2.46901 10.5014 1.94547 9.97925C1.42193 9.4571 1.00636 8.83694 0.722485 8.15419C0.438613 7.47143 0.292 6.73945 0.291016 6.00003C0.291016 2.8936 2.81515 0.37696 5.92908 0.37696C6.66861 0.37581 7.40111 0.520353 8.08476 0.802332C8.76842 1.08431 9.38983 1.4982 9.9135 2.02037C10.4372 2.54254 10.8529 3.16275 11.1368 3.84559C11.4208 4.52843 11.5674 5.26051 11.5684 6.00003ZM17.7538 6.00003C17.7538 8.92403 16.4917 11.2932 14.9347 11.2932C13.3778 11.2932 12.1157 8.92278 12.1157 6.00003C12.1157 3.07603 13.3778 0.706847 14.9347 0.706847C16.4917 0.706847 17.7538 3.07728 17.7538 6.00003ZM20.2842 6.00003C20.2842 8.61913 19.8406 10.7422 19.292 10.7422C18.7447 10.7422 18.3011 8.61789 18.3011 6.00003C18.3011 3.38093 18.7447 1.25791 19.2933 1.25791C19.8406 1.25791 20.2842 3.38093 20.2842 6.00003Z" fill="#4589FF"/>
</svg>
