<svg width="1440" height="900" viewBox="0 0 1440 900" fill="none" xmlns="http://www.w3.org/2000/svg">
<g filter="url(#filter0_i_550_14013)">
<rect width="100" height="100" rx="10" transform="matrix(0.866025 0.5 -0.866025 0.5 1410.77 0.927734)" fill="#5F91E6"/>
<rect width="100" height="100" rx="10" transform="matrix(0.866025 0.5 -0.866025 0.5 1282.6 74.9277)" fill="#5F91E6"/>
<rect width="100" height="100" rx="10" transform="matrix(0.866025 0.5 -0.866025 0.5 1154.42 148.928)" fill="#5F91E6"/>
<rect width="100" height="100" rx="10" transform="matrix(0.866025 0.5 -0.866025 0.5 1026.25 222.928)" fill="#5F91E6"/>
<rect width="100" height="100" rx="10" transform="matrix(0.866025 0.5 -0.866025 0.5 898.081 296.928)" fill="#5F91E6"/>
<rect width="100" height="100" rx="10" transform="matrix(0.866025 0.5 -0.866025 0.5 769.909 370.928)" fill="#5F91E6"/>
<rect width="100" height="100" rx="10" transform="matrix(0.866025 0.5 -0.866025 0.5 641.737 444.928)" fill="#5F91E6"/>
<rect width="100" height="100" rx="10" transform="matrix(0.866025 0.5 -0.866025 0.5 513.565 518.928)" fill="#5F91E6"/>
<rect width="100" height="100" rx="10" transform="matrix(0.866025 0.5 -0.866025 0.5 385.394 592.928)" fill="#5F91E6"/>
<rect width="100" height="100" rx="10" transform="matrix(0.866025 0.5 -0.866025 0.5 257.222 666.928)" fill="#5F91E6"/>
<rect width="100" height="100" rx="10" transform="matrix(0.866025 0.5 -0.866025 0.5 129.05 740.928)" fill="#5F91E6"/>
<rect width="100" height="100" rx="10" transform="matrix(0.866025 0.5 -0.866025 0.5 0.87793 814.928)" fill="#5F91E6"/>
<rect width="100" height="100" rx="10" transform="matrix(0.866025 0.5 -0.866025 0.5 1410.77 148.928)" fill="#5F91E6"/>
<rect width="100" height="100" rx="10" transform="matrix(0.866025 0.5 -0.866025 0.5 1282.6 222.928)" fill="#5F91E6"/>
<rect width="100" height="100" rx="10" transform="matrix(0.866025 0.5 -0.866025 0.5 1154.42 296.928)" fill="#5F91E6"/>
<rect width="100" height="100" rx="10" transform="matrix(0.866025 0.5 -0.866025 0.5 1026.25 370.928)" fill="#5F91E6"/>
<rect width="100" height="100" rx="10" transform="matrix(0.866025 0.5 -0.866025 0.5 898.081 444.928)" fill="#5F91E6"/>
<rect width="100" height="100" rx="10" transform="matrix(0.866025 0.5 -0.866025 0.5 769.909 518.928)" fill="#5F91E6"/>
<rect width="100" height="100" rx="10" transform="matrix(0.866025 0.5 -0.866025 0.5 641.737 592.928)" fill="#5F91E6"/>
<rect width="100" height="100" rx="10" transform="matrix(0.866025 0.5 -0.866025 0.5 513.565 666.928)" fill="#5F91E6"/>
<rect width="100" height="100" rx="10" transform="matrix(0.866025 0.5 -0.866025 0.5 385.394 740.928)" fill="#5F91E6"/>
<rect width="100" height="100" rx="10" transform="matrix(0.866025 0.5 -0.866025 0.5 257.222 814.928)" fill="#5F91E6"/>
<rect width="100" height="100" rx="10" transform="matrix(0.866025 0.5 -0.866025 0.5 129.05 888.928)" fill="#5F91E6"/>
<rect width="100" height="100" rx="10" transform="matrix(0.866025 0.5 -0.866025 0.5 1410.77 296.928)" fill="#5F91E6"/>
<rect width="100" height="100" rx="10" transform="matrix(0.866025 0.5 -0.866025 0.5 1282.6 370.928)" fill="#5F91E6"/>
<rect width="100" height="100" rx="10" transform="matrix(0.866025 0.5 -0.866025 0.5 1154.42 444.928)" fill="#5F91E6"/>
<rect width="100" height="100" rx="10" transform="matrix(0.866025 0.5 -0.866025 0.5 1026.25 518.928)" fill="#5F91E6"/>
<rect width="100" height="100" rx="10" transform="matrix(0.866025 0.5 -0.866025 0.5 898.081 592.928)" fill="#5F91E6"/>
<rect width="100" height="100" rx="10" transform="matrix(0.866025 0.5 -0.866025 0.5 769.909 666.928)" fill="#5F91E6"/>
<rect width="100" height="100" rx="10" transform="matrix(0.866025 0.5 -0.866025 0.5 641.737 740.928)" fill="#5F91E6"/>
<rect width="100" height="100" rx="10" transform="matrix(0.866025 0.5 -0.866025 0.5 513.565 814.928)" fill="#5F91E6"/>
<rect width="100" height="100" rx="10" transform="matrix(0.866025 0.5 -0.866025 0.5 385.394 888.928)" fill="#5F91E6"/>
<rect width="100" height="100" rx="10" transform="matrix(0.866025 0.5 -0.866025 0.5 1410.77 444.928)" fill="#5F91E6"/>
<rect width="100" height="100" rx="10" transform="matrix(0.866025 0.5 -0.866025 0.5 1282.6 518.928)" fill="#5F91E6"/>
<rect width="100" height="100" rx="10" transform="matrix(0.866025 0.5 -0.866025 0.5 1154.42 592.928)" fill="#5F91E6"/>
<rect width="100" height="100" rx="10" transform="matrix(0.866025 0.5 -0.866025 0.5 1026.25 666.928)" fill="#5F91E6"/>
<rect width="100" height="100" rx="10" transform="matrix(0.866025 0.5 -0.866025 0.5 898.081 740.928)" fill="#5F91E6"/>
<rect width="100" height="100" rx="10" transform="matrix(0.866025 0.5 -0.866025 0.5 769.909 814.928)" fill="#5F91E6"/>
<rect width="100" height="100" rx="10" transform="matrix(0.866025 0.5 -0.866025 0.5 641.737 888.928)" fill="#5F91E6"/>
<rect width="100" height="100" rx="10" transform="matrix(0.866025 0.5 -0.866025 0.5 1410.77 592.928)" fill="#5F91E6"/>
<rect width="100" height="100" rx="10" transform="matrix(0.866025 0.5 -0.866025 0.5 1282.6 666.928)" fill="#5F91E6"/>
<rect width="100" height="100" rx="10" transform="matrix(0.866025 0.5 -0.866025 0.5 1154.42 740.928)" fill="#5F91E6"/>
<rect width="100" height="100" rx="10" transform="matrix(0.866025 0.5 -0.866025 0.5 1026.25 814.928)" fill="#5F91E6"/>
<rect width="100" height="100" rx="10" transform="matrix(0.866025 0.5 -0.866025 0.5 898.081 888.928)" fill="#5F91E6"/>
<rect width="100" height="100" rx="10" transform="matrix(0.866025 0.5 -0.866025 0.5 1410.77 740.928)" fill="#5F91E6"/>
<rect width="100" height="100" rx="10" transform="matrix(0.866025 0.5 -0.866025 0.5 1282.6 814.928)" fill="#5F91E6"/>
<rect width="100" height="100" rx="10" transform="matrix(0.866025 0.5 -0.866025 0.5 1154.42 888.928)" fill="#5F91E6"/>
<rect width="100" height="100" rx="10" transform="matrix(0.866025 0.5 -0.866025 0.5 1410.77 888.928)" fill="#5F91E6"/>
</g>
<defs>
<filter id="filter0_i_550_14013" x="-721.51" y="-70.1436" width="3367.35" height="1948.14" filterUnits="userSpaceOnUse" color-interpolation-filters="sRGB">
<feFlood flood-opacity="0" result="BackgroundImageFix"/>
<feBlend mode="normal" in="SourceGraphic" in2="BackgroundImageFix" result="shape"/>
<feColorMatrix in="SourceAlpha" type="matrix" values="0 0 0 0 0 0 0 0 0 0 0 0 0 0 0 0 0 0 127 0" result="hardAlpha"/>
<feOffset dy="4"/>
<feGaussianBlur stdDeviation="2"/>
<feComposite in2="hardAlpha" operator="arithmetic" k2="-1" k3="1"/>
<feColorMatrix type="matrix" values="0 0 0 0 0.329167 0 0 0 0 0.329167 0 0 0 0 0.329167 0 0 0 0.25 0"/>
<feBlend mode="normal" in2="shape" result="effect1_innerShadow_550_14013"/>
</filter>
</defs>
</svg>
