<svg width="80" height="80" viewBox="0 0 80 80" fill="none" xmlns="http://www.w3.org/2000/svg">
<g clip-path="url(#clip0_1_665)">
<path d="M40.0001 80C62.0914 80 80.0001 62.0914 80.0001 40C80.0001 17.9086 62.0914 0 40.0001 0C17.9087 0 6.10352e-05 17.9086 6.10352e-05 40C6.10352e-05 62.0914 17.9087 80 40.0001 80Z" fill="#2DAAE1"/>
<path d="M65.6474 24.0886C63.7607 24.9258 61.7342 25.4918 59.6035 25.7462C61.7781 24.4441 63.4439 22.3806 64.2305 19.9248C62.1649 21.1517 59.9042 22.0154 57.5468 22.4784C55.6283 20.4335 52.8925 19.1567 49.8658 19.1567C44.0562 19.1567 39.3446 23.8664 39.3446 29.6794C39.3446 30.503 39.4374 31.3066 39.6158 32.078C30.8702 31.6385 23.1167 27.4493 17.9269 21.0838C17.0207 22.6384 16.502 24.446 16.502 26.3745C16.502 30.0248 18.3599 33.2454 21.183 35.132C19.5118 35.0802 17.8773 34.6291 16.416 33.8164V33.9494C16.416 39.0482 20.0426 43.2998 24.8568 44.2667C23.9724 44.509 23.0443 44.6356 22.0842 44.6356C21.4054 44.6356 20.7468 44.5713 20.1034 44.4503C21.4424 48.6295 25.3286 51.6715 29.932 51.7575C26.3306 54.5806 21.7927 56.2634 16.8641 56.2634C16.0152 56.2634 15.1762 56.2128 14.3526 56.1135C19.0101 59.1 24.5402 60.8434 30.4829 60.8434C49.8371 60.8434 60.4221 44.8092 60.4221 30.9041C60.4221 30.4476 60.4121 29.9945 60.3901 29.543C62.4524 28.0514 64.2326 26.2044 65.6474 24.0886Z" fill="white"/>
</g>
<defs>
<clipPath id="clip0_1_665">
<rect width="80" height="80" fill="white"/>
</clipPath>
</defs>
</svg>
