<svg width="80" height="80" viewBox="0 0 56 24" fill="none" xmlns="http://www.w3.org/2000/svg">
<mask id="mask0_665_14232" style="mask-type:alpha" maskUnits="userSpaceOnUse" x="0" y="0" width="56" height="25">
<path d="M26.292 19.7148H44.6957V24.0006H26.292V19.7148Z" fill="#949494"/>
<path d="M20.9414 14.7861H44.695V19.0719H20.9414V14.7861Z" fill="#949494"/>
<path d="M23.9375 9.85742H44.6951V14.1432H23.9375V9.85742Z" fill="#949494"/>
<path d="M24.542 4.92871H44.695V9.21447H24.542V4.92871Z" fill="#949494"/>
<path d="M20.0854 0H44.695V4.28576H20.0854V0Z" fill="#949494"/>
<mask id="mask1_665_14232" style="mask-type:alpha" maskUnits="userSpaceOnUse" x="34" y="0" width="22" height="24">
<path d="M55.2877 12.0001C55.2877 18.6276 50.5451 24.0002 44.6949 24.0002C38.8446 24.0002 34.1021 18.6276 34.1021 12.0001C34.1021 5.37264 38.8446 0 44.6949 0C50.5451 0 55.2877 5.37264 55.2877 12.0001Z" fill="#D9D9D9"/>
</mask>
<g mask="url(#mask1_665_14232)">
<path d="M36.8843 19.7148H55.288V24.0006H36.8843V19.7148Z" fill="#949494"/>
<path d="M31.5342 14.7861H55.2878V19.0719H31.5342V14.7861Z" fill="#949494"/>
<path d="M34.5308 9.85742H55.2884V14.1432H34.5308V9.85742Z" fill="#949494"/>
<path d="M35.1343 4.92871H55.2873V9.21447H35.1343V4.92871Z" fill="#949494"/>
<path d="M30.6782 0H55.2878V4.28576H30.6782V0Z" fill="#949494"/>
</g>
<path d="M8.31396 9.85742H17.3018V14.1432H8.31396V9.85742Z" fill="#949494"/>
<path d="M8.41444 19.9799C8.51011 19.8153 8.68691 19.7139 8.87825 19.7139L10.7501 19.7139C10.9415 19.7139 11.1183 19.8153 11.214 19.9799L12.1499 21.5907C12.2456 21.7553 12.2456 21.9582 12.1499 22.1228L11.214 23.7336C11.1183 23.8982 10.9415 23.9996 10.7501 23.9996L8.87824 23.9996C8.68691 23.9996 8.51011 23.8982 8.41444 23.7336L7.47849 22.1228C7.38282 21.9582 7.38282 21.7553 7.47849 21.5907L8.41444 19.9799Z" fill="#949494"/>
<path d="M14.9403 19.9799C15.036 19.8153 15.2128 19.7139 15.4041 19.7139L17.276 19.7139C17.4674 19.7139 17.6442 19.8153 17.7398 19.9799L18.6758 21.5907C18.7715 21.7553 18.7715 21.9582 18.6758 22.1228L17.7398 23.7336C17.6442 23.8982 17.4674 23.9996 17.276 23.9996L15.4041 23.9996C15.2128 23.9996 15.036 23.8982 14.9403 23.7336L14.0044 22.1228C13.9087 21.9582 13.9087 21.7553 14.0044 21.5907L14.9403 19.9799Z" fill="#949494"/>
<path d="M18.8666 19.9799C18.9623 19.8153 19.1391 19.7139 19.3304 19.7139L21.2023 19.7139C21.3936 19.7139 21.5704 19.8153 21.6661 19.9799L22.6021 21.5907C22.6977 21.7553 22.6977 21.9582 22.6021 22.1228L21.6661 23.7336C21.5704 23.8982 21.3936 23.9996 21.2023 23.9996L19.3304 23.9996C19.1391 23.9996 18.9623 23.8982 18.8666 23.7336L17.9306 22.1228C17.835 21.9582 17.835 21.7553 17.9306 21.5907L18.8666 19.9799Z" fill="#949494"/>
<path d="M16.9384 19.9799C17.034 19.8153 17.2108 19.7139 17.4022 19.7139L19.2741 19.7139C19.4654 19.7139 19.6422 19.8153 19.7379 19.9799L20.6738 21.5907C20.7695 21.7553 20.7695 21.9582 20.6738 22.1228L19.7379 23.7336C19.6422 23.8982 19.4654 23.9996 19.2741 23.9996L17.4022 23.9996C17.2108 23.9996 17.034 23.8982 16.9384 23.7336L16.0024 22.1228C15.9067 21.9582 15.9067 21.7553 16.0024 21.5907L16.9384 19.9799Z" fill="#949494"/>
<path d="M25.3944 19.9799C25.4901 19.8153 25.6669 19.7139 25.8582 19.7139L27.7301 19.7139C27.9215 19.7139 28.0983 19.8153 28.1939 19.9799L29.1299 21.5907C29.2256 21.7553 29.2256 21.9582 29.1299 22.1228L28.1939 23.7336C28.0983 23.8982 27.9215 23.9996 27.7301 23.9996L25.8582 23.9996C25.6669 23.9996 25.4901 23.8982 25.3944 23.7336L24.4585 22.1228C24.3628 21.9582 24.3628 21.7553 24.4585 21.5907L25.3944 19.9799Z" fill="#949494"/>
<path d="M20.0214 15.0512C20.117 14.8866 20.2938 14.7852 20.4852 14.7852L22.3571 14.7852C22.5484 14.7852 22.7252 14.8866 22.8209 15.0512L23.7568 16.662C23.8525 16.8266 23.8525 17.0295 23.7568 17.1941L22.8209 18.8048C22.7252 18.9695 22.5484 19.0709 22.3571 19.0709L20.4852 19.0709C20.2938 19.0709 20.117 18.9695 20.0214 18.8048L19.0854 17.1941C18.9898 17.0295 18.9898 16.8266 19.0854 16.662L20.0214 15.0512Z" fill="#949494"/>
<path d="M23.0165 10.1235C23.1122 9.95885 23.289 9.85742 23.4803 9.85742L25.3522 9.85742C25.5435 9.85742 25.7203 9.95885 25.816 10.1235L26.752 11.7342C26.8476 11.8989 26.8476 12.1017 26.752 12.2664L25.816 13.8771C25.7203 14.0418 25.5435 14.1432 25.3522 14.1432L23.4803 14.1432C23.289 14.1432 23.1122 14.0418 23.0165 13.8771L22.0805 12.2664C21.9849 12.1017 21.9849 11.8989 22.0805 11.7342L23.0165 10.1235Z" fill="#949494"/>
<path d="M23.6302 5.19478C23.7231 5.03013 23.8947 4.92871 24.0805 4.92871L25.8979 4.92871C26.0836 4.92871 26.2553 5.03013 26.3482 5.19478L27.2569 6.80552C27.3498 6.97017 27.3498 7.17301 27.2569 7.33765L26.3482 8.9484C26.2553 9.11305 26.0836 9.21447 25.8979 9.21447L24.0805 9.21447C23.8947 9.21447 23.7231 9.11304 23.6302 8.9484L22.7215 7.33765C22.6286 7.17301 22.6286 6.97017 22.7215 6.80552L23.6302 5.19478Z" fill="#949494"/>
<path d="M19.1356 0.266065C19.2285 0.101423 19.4001 -4.50239e-09 19.5859 0L21.4033 4.40486e-08C21.589 4.8551e-08 21.7607 0.101423 21.8536 0.266065L22.7622 1.87681C22.8551 2.04146 22.8551 2.2443 22.7622 2.40894L21.8536 4.01969C21.7607 4.18433 21.589 4.28576 21.4033 4.28576L19.5859 4.28576C19.4001 4.28576 19.2285 4.18433 19.1356 4.01969L18.2269 2.40894C18.134 2.2443 18.134 2.04146 18.2269 1.87681L19.1356 0.266065Z" fill="#949494"/>
<path d="M12.7493 0.266065C12.8422 0.101423 13.0139 -4.50239e-09 13.1996 0L15.017 4.40486e-08C15.2028 4.8551e-08 15.3744 0.101423 15.4673 0.266065L16.376 1.87681C16.4689 2.04146 16.4689 2.2443 16.376 2.40894L15.4673 4.01969C15.3744 4.18433 15.2028 4.28576 15.017 4.28576L13.1996 4.28576C13.0139 4.28576 12.8422 4.18433 12.7493 4.01969L11.8407 2.40894C11.7478 2.2443 11.7478 2.04146 11.8407 1.87681L12.7493 0.266065Z" fill="#949494"/>
<path d="M17.2435 5.19478C17.3364 5.03013 17.508 4.92871 17.6938 4.92871L19.5112 4.92871C19.6969 4.92871 19.8686 5.03013 19.9615 5.19478L20.8702 6.80552C20.963 6.97017 20.963 7.17301 20.8702 7.33765L19.9615 8.9484C19.8686 9.11305 19.6969 9.21447 19.5112 9.21447L17.6938 9.21447C17.508 9.21447 17.3364 9.11304 17.2435 8.9484L16.3348 7.33765C16.2419 7.17301 16.2419 6.97017 16.3348 6.80552L17.2435 5.19478Z" fill="#949494"/>
<path d="M16.5971 10.1235C16.6927 9.95885 16.8695 9.85742 17.0609 9.85742L18.9328 9.85742C19.1241 9.85742 19.3009 9.95885 19.3966 10.1235L20.3325 11.7342C20.4282 11.8989 20.4282 12.1017 20.3325 12.2664L19.3966 13.8771C19.3009 14.0418 19.1241 14.1432 18.9328 14.1432L17.0609 14.1432C16.8695 14.1432 16.6927 14.0418 16.5971 13.8771L15.6611 12.2664C15.5654 12.1017 15.5654 11.8989 15.6611 11.7342L16.5971 10.1235Z" fill="#949494"/>
<path d="M7.82362 10.1235C7.91929 9.95885 8.09609 9.85742 8.28742 9.85742L10.1593 9.85742C10.3507 9.85742 10.5275 9.95885 10.6231 10.1235L11.5591 11.7342C11.6548 11.8989 11.6548 12.1017 11.5591 12.2664L10.6231 13.8771C10.5275 14.0418 10.3507 14.1432 10.1593 14.1432L8.28742 14.1432C8.09609 14.1432 7.91929 14.0418 7.82362 13.8771L6.88767 12.2664C6.792 12.1017 6.792 11.8989 6.88767 11.7342L7.82362 10.1235Z" fill="#949494"/>
<path d="M1.29725 10.1235C1.39292 9.95885 1.56972 9.85742 1.76106 9.85742L3.63296 9.85742C3.8243 9.85742 4.0011 9.95885 4.09677 10.1235L5.03272 11.7342C5.12839 11.8989 5.12839 12.1017 5.03272 12.2664L4.09677 13.8771C4.0011 14.0418 3.8243 14.1432 3.63296 14.1432L1.76106 14.1432C1.56972 14.1432 1.39292 14.0418 1.29725 13.8771L0.361301 12.2664C0.265634 12.1017 0.265634 11.8989 0.361302 11.7342L1.29725 10.1235Z" fill="#949494"/>
<path d="M13.4945 15.0512C13.5902 14.8866 13.767 14.7852 13.9583 14.7852L15.8302 14.7852C16.0216 14.7852 16.1984 14.8866 16.294 15.0512L17.23 16.662C17.3257 16.8266 17.3257 17.0295 17.23 17.1941L16.294 18.8048C16.1984 18.9695 16.0216 19.0709 15.8302 19.0709L13.9583 19.0709C13.767 19.0709 13.5902 18.9695 13.4945 18.8048L12.5586 17.1941C12.4629 17.0295 12.4629 16.8266 12.5586 16.662L13.4945 15.0512Z" fill="#949494"/>
<path d="M16.874 16.5H19.4432V17.3572H16.874V16.5Z" fill="#949494"/>
<path d="M20.1367 11.5713H22.7058V12.4284H20.1367V11.5713Z" fill="#949494"/>
<path d="M16.0171 1.71387H18.5862V2.57102H16.0171V1.71387Z" fill="#949494"/>
<path d="M22.46 21.4287H25.0291V22.2859H22.46V21.4287Z" fill="#949494"/>
</mask>
<g mask="url(#mask0_665_14232)">
<rect x="-3.88135" y="-1.92578" width="60.1122" height="27.851" fill="url(#paint0_linear_665_14232)"/>
</g>
<defs>
<linearGradient id="paint0_linear_665_14232" x1="59.8343" y1="11.9997" x2="-3.88135" y2="11.9997" gradientUnits="userSpaceOnUse">
<stop offset="0.317708" stop-color="#4589FF"/>
<stop offset="1" stop-color="#00FFB2"/>
</linearGradient>
</defs>
</svg>
